<svg viewBox="0 0 650 140" width="340" height="100" style="display:block;max-width:100%;height:auto;" aria-labelledby="logoTitle logoDesc" role="img">
  <title id="logoTitle">
                        </title>
  <desc id="logoDesc"/>
  <defs>
    <style>
      .a{
        opacity:1;
        fill:#100906
      }
      .b{
        display:none;
        fill:#8a7c7c
      }
      .c{
        fill:#fd6666
      }
      .d{
        fill:#c3fa82
      }
      .e{
        fill:#f36769
      }
      .f{
        fill:#41720c
      }
      
      .g{
        display:none;
        fill:#f36769
      }
      .g1 {
          font-family: &apos;Montserrat&apos;, sans-serif;
          font-weight: 700;
          font-size: 72px;
          fill: #373C28;
      }

      .z1 {
          font-family: &apos;Montserrat&apos;, sans-serif;
          font-weight: 700;
          font-size: 72px;
          fill: #373C28;
      }
      
      .a1 {
          font-family: &apos;Montserrat&apos;, sans-serif;
          font-weight: 700;
          font-size: 72px;
          fill: #373C28;
      }

      .students {
          font-family: &apos;Montserrat&apos;, sans-serif;
          font-weight: 700;
          font-size: 72px;
          fill: #237B22;
      }

      .tagline {
          font-family: &apos;Montserrat&apos;, sans-serif;
          font-weight: 700;
          font-size: 38px;
          fill: #DB3F4A;
          letter-spacing: 0.14em;
      }
    </style>
  </defs>
  <text x="0" y="78" class="g1">G</text>
  <g id="watermelon_icon" transform="translate(55,17)">
    <svg version="1.2" xmlns="http://www.w3.org/2000/svg" viewBox="0 0 442 358" width="80" height="72">
      <path class="a" d="m216.5 15.4c-4.9 4-13.3 11.5-18.6 16.7-5.3 5.2-16.3 17.5-24.5 27.4-8.2 9.9-22.3 26.3-31.3 36.5-9 10.2-22.5 25-30 33-7.6 8-19.1 20.3-25.7 27.5-6.6 7.2-19.2 21.4-28 31.6-8.7 10.2-18.6 21.9-21.9 26-3.3 4.1-11.1 13.6-17.2 21.1-6.2 7.6-11.3 14.1-11.3 14.5 0 0.5 3.2 3.5 7.1 6.8 3.9 3.3 8.6 7.1 10.4 8.5 1.8 1.4 6.6 5 10.6 8.1 4.1 3.1 12.8 9.2 19.4 13.6 6.6 4.4 17.6 11.4 24.5 15.5 6.9 4.2 16.7 9.6 21.8 12.2 5 2.5 11.6 5.5 14.5 6.5 2.8 1.1 9.2 3.1 14.2 4.5 4.9 1.4 15.2 3.9 22.8 5.5 7.5 1.7 21.9 4.3 32 5.9 16.3 2.4 20.9 2.7 44.2 2.7 20.9 0 27.8-0.4 35-1.8 4.9-1 13.5-3 19-4.4 5.5-1.4 20.1-6.4 32.5-11 12.4-4.6 27.2-10.7 33-13.4 5.8-2.8 14.1-7.6 18.5-10.6 4.4-3.1 11.8-8.8 16.5-12.6 4.7-3.8 13.7-11.5 20-17.2 6.3-5.6 14.1-13.6 17.3-17.8 3.4-4.6 5.4-8.2 5-8.9-0.4-0.7-8.4-11.9-17.7-24.8-9.3-12.9-19-26.4-21.6-30-2.6-3.6-9.5-13.2-15.5-21.5-5.9-8.2-12.2-17-14-19.5-1.9-2.5-12.5-16.7-23.6-31.5-11.1-14.8-23.6-31.3-27.7-36.5-4.2-5.2-9.9-12.4-12.7-16-2.8-3.6-11.4-14.4-18.9-24-7.6-9.6-14.5-18-15.4-18.7-0.9-0.7-8.2-3.5-16.2-6.3-8-2.8-15.2-5-16-5-0.8 0.1-5.6 3.4-10.5 7.4z"/>
      <path class="b" d="m227.5 340.7c3.3 0.2 8.3 0.2 11 0 2.8-0.2 0.1-0.3-6-0.3-6.1 0-8.3 0.1-5 0.3z"/>
      <path class="c" d="m222.2 17c-1.8 1.6-3.3 2.8-3.4 2.6-0.2-0.3-3 2-6.3 5-3.3 3-6.2 5.5-6.5 5.5-0.3 0-2.3 1.9-4.5 4.2-2.2 2.3-3.9 4.5-3.7 4.9 0.1 0.5-0.4 0.7-1 0.5-0.7-0.1-1.2 0.5-1 1.3 0.2 0.8 0 1.2-0.5 0.7-0.4-0.4-2 0.5-3.5 2-1.5 1.6-2.5 3.1-2.3 3.5 0.3 0.5 0 0.7-0.6 0.5-0.6-0.1-1.6 0.6-2.2 1.6-0.7 1.1-2.7 3.4-4.4 5.3-1.9 1.9-3 3.9-2.6 4.6 0.3 0.7 0.3 1 0 0.5-0.4-0.4-1.4 0-2.2 0.8-0.8 0.8-1.5 2-1.5 2.5 0 0.5-0.3 1.1-0.7 1.2-0.5 0.2-2.1 2.3-3.8 4.8-1.6 2.5-5 7.2-7.5 10.5-2.5 3.3-6.2 7.8-8.2 10-2.1 2.2-3.8 4.6-3.8 5.3 0 0.6-0.7 1.2-1.5 1.2-0.8 0-1.5 0.5-1.5 1 0 0.5-9.3 10.4-20.7 21.9-11.5 11.6-23.4 23.7-26.5 27-3.2 3.4-5.8 6.5-5.8 7.1 0 0.6-0.8 1-1.7 1-1 0-1.5 0.2-1 0.5 0.4 0.3-2.4 3.7-6.3 7.5-3.8 3.8-7 7.4-7 8 0 0.6-1.3 2.2-2.8 3.8-1.5 1.5-5.4 5.7-8.5 9.5-3.5 4.1-5.4 7.2-5 8 0.5 0.7 0.4 0.9-0.2 0.5-0.6-0.4-3.8 2.6-7.2 6.7-3.5 4.1-6.3 7.9-6.3 8.5 0 0.6-0.9 1.2-2 1.5-1.1 0.3-2 0.9-2 1.5 0 0.6-1.6 2.7-3.5 4.8-1.9 2-5.7 6.2-8.4 9.2-2.8 3-4.8 6.1-4.5 6.8 0.2 0.6 0.9 1 1.4 0.7 0.6-0.3 1 0.2 1 1 0 0.8 0.6 1.5 1.3 1.5 0.6-0.1 2.7 1.3 4.5 3 1.7 1.6 3.7 3 4.2 3 0.6 0 1 0.4 1 1 0 0.6 2.2 2 5 3.3 2.7 1.2 4.7 2.5 4.3 3-0.3 0.4-0.1 0.7 0.5 0.7 0.7 0 1.3-0.1 1.5-0.2 0.1-0.2 1.4 0.7 2.7 2 1.4 1.2 3 2.2 3.5 2.2 0.6 0 1.7 0.9 2.5 2 0.8 1.1 2.1 2 2.8 2 0.6 0 2.2 0.9 3.5 2 1.2 1.1 2.8 2 3.5 2 0.6 0 1.2 0.4 1.2 1 0 0.6 0.9 1 2 1 1.1 0 1.8 0.4 1.5 1-0.3 0.6 0.2 1 1 1 0.8 0 1.5 0.4 1.5 1 0 0.6 0.7 1 1.5 1 0.8 0 3 1 4.8 2.2 1.7 1.2 3.3 2.6 3.5 3 0.1 0.4 1.3 0.8 2.7 0.8 1.4 0 3.6 1.1 5 2.5 1.4 1.4 3 2.3 3.5 2 0.6-0.3 1-0.1 1 0.5 0 0.6 0.7 1 1.5 1 0.8 0 2.5 0.9 3.8 2 1.2 1.1 2.8 2 3.5 2 0.6 0 1.2 0.4 1.2 1 0 0.6 1.4 1 3 1 1.7 0 3 0.4 3 1 0 0.6 0.9 1 2 1 1.1 0 2 0.4 2 1 0 0.6 1.4 1 3 1 1.7 0 3 0.4 3 1 0 0.6 0.7 1 1.5 1 0.8 0 2.3 0.4 3.3 0.9 0.9 0.5 3.7 1.4 6.2 2.1 2.5 0.6 5.9 1.5 7.5 2.1 1.7 0.5 5.4 0.9 8.3 0.9 2.8 0 5.2 0.4 5.2 1 0 0.6 3.7 1 9 1 5.3 0 9 0.4 9 1 0 0.6 5.7 1 15 1 9.3 0 15-0.4 15-1 0-0.6 3.3-1 8-1 4.4 0 8.1-0.4 8.3-1 0.1-0.5 3.2-1.1 7-1.2 3.7-0.2 6.7-0.6 6.7-1 0-0.5 1.5-1 3.3-1.2 1.7-0.3 5.5-0.9 8.2-1.4 2.8-0.6 7-1.7 9.5-2.6 2.5-0.9 5.5-1.6 6.8-1.6 1.2 0 2.2-0.4 2.2-1 0-0.6 0.9-1 2-1 1.1 0 2-0.4 2-1 0-0.6 1.4-1 3-1 1.6 0 3-0.4 3-1 0-0.6 0.9-1 2-1 1.1 0 2-0.4 2-1 0-0.6 1.2-1 2.8-1 1.6 0 3.3-0.8 4.2-2 0.8-1.1 2.1-2 2.8-2 0.6 0 2.2-0.9 3.5-2 1.2-1.1 2.8-2 3.5-2 0.6 0 1-0.4 0.7-1-0.3-0.6 0.2-1 1-1 0.8 0 1.5-0.4 1.5-1 0-0.6 0.3-0.9 0.8-0.9 0.4 0.1 1.3 0.1 2 0 0.6 0 1-0.5 0.7-1.1-0.3-0.6 0.3-0.9 1.3-0.7 0.9 0.1 1.6-0.4 1.5-1-0.2-0.7 0.6-1.3 1.7-1.3 1.1 0 2-0.4 2-1 0-0.6 0.7-1 1.5-1 0.8 0 2.9-1.4 4.5-3 1.6-1.6 3.7-3 4.5-3 0.8 0 2.2-1 3-2.2 0.9-1.3 1.9-2.3 2.3-2.3 0.4 0 0.6-0.3 0.5-0.7-0.2-0.5 0.6-0.8 1.7-0.8 1.1 0 2-0.3 2-0.7 0-0.5 1.1-1.5 2.4-2.3 1.4-0.8 2.3-1.8 2.1-2.2-0.3-0.5 0.3-0.8 1.3-0.8 0.9-0.1 2.4-0.9 3.2-1.8 0.8-0.9 2.4-2.2 3.5-2.9 1.1-0.6 1.9-1.6 1.8-2.2-0.2-0.6 0.1-0.9 0.7-0.6 0.6 0.3 2.6-1.1 4.5-3 1.9-1.9 3.8-3.5 4.2-3.5 0.4 0 2.3-1.4 4.1-3 1.7-1.7 3.6-3 4.2-3 0.6 0 1.2-0.4 1.5-1 0.3-0.6-0.7-3.2-2.2-5.8-1.6-2.6-3.7-6.3-4.8-8.1-1.1-1.9-2.9-4.3-4-5.5-1.1-1.2-2.5-3.1-3.1-4.2-0.6-1-1.7-3-2.5-4.4-0.8-1.4-1.7-2.7-2-3-0.3-0.3-2.5-3.4-4.9-7-2.4-3.6-4.8-6.7-5.3-7-0.5-0.3-0.7-0.8-0.5-1.2 0.1-0.3-0.7-1.8-1.9-3.2-1.3-1.4-2.9-3.7-3.5-5.1-0.7-1.4-1.6-2.5-2-2.5-0.5 0-0.8-0.7-0.8-1.5 0-0.8-0.4-1.3-1-1-0.6 0.3-1-0.4-1-1.5 0-1.1-0.4-2-1-2-0.6 0-1-0.6-1-1.2 0-0.7-0.8-2.2-1.7-3.3-1-1.1-2.5-3.2-3.3-4.8-0.8-1.5-1.8-2.7-2.2-2.7-0.5 0-0.8-0.6-0.8-1.2 0-0.7-1.1-2.6-2.5-4.3-1.4-1.7-2.8-3.8-3-4.7-0.3-1-0.8-1.8-1.2-1.8-0.5 0-1.9-1.8-3.3-4-1.4-2.2-2.8-4-3.2-4-0.5 0-0.8-0.4-0.8-1 0-0.5-1-2.6-2.2-4.5-1.3-1.9-2.6-3.3-3-3-0.5 0.3-0.6 0.2-0.3-0.2 0.2-0.5-0.3-2.1-1.3-3.8-0.9-1.7-2.5-3.8-3.4-4.7-1-1-1.8-2.1-1.8-2.5-0.1-0.5-0.8-1.7-1.8-2.8-0.9-1.1-2.4-3.3-3.2-4.8-0.8-1.5-1.8-2.7-2.2-2.7-0.5 0-0.8-0.6-0.8-1.2 0-0.7-0.9-2.3-2-3.5-1.1-1.3-2-2.5-2-2.8 0-0.3-1.5-2.6-3.2-5.2-1.8-2.6-3.9-5.3-4.5-6-0.7-0.7-1.5-2.2-1.8-3.3-0.3-1.1-0.9-2-1.5-2-0.6 0-1-0.6-1-1.2 0-0.7-1.1-2.6-2.5-4.3-1.4-1.7-2.8-3.8-3-4.7-0.3-1-0.8-1.8-1.2-1.8-0.5 0-1.4-1.1-2-2.5-0.7-1.4-3.1-4.9-5.3-7.7-2.2-2.9-4-5.9-4-6.5 0-0.7-0.3-1.3-0.7-1.3-0.5 0-1.9-1.8-3.3-4-1.4-2.2-2.8-4-3.2-4-0.5 0-0.8-0.9-0.8-2 0-1.1-0.3-2.1-0.8-2.2-0.4-0.2-2.2-2.5-4-5.3-1.7-2.7-4.1-6.2-5.2-7.7-1.1-1.6-2.8-2.8-3.7-2.8-1.5 0-1.6-0.2-0.3-1 0.8-0.5 1-1 0.4-1-0.6 0-2.5 1.4-4.2 3zm11.8-2c0 0.6 0.7 0.8 1.5 0.5 1.1-0.4 1.3 0 0.9 1.3-0.3 1 0.4 2.7 1.5 4 1.2 1.2 2.1 2.5 2.1 3 0 0.4 0.8 1.6 1.7 2.7 1 1.1 2.9 3.7 4.3 5.7 1.4 2.1 2.8 3.8 3.3 3.8 0.4 0 0.5 0.5 0.2 1-0.3 0.5-0.1 1 0.5 1 0.6 0 0.8 0.5 0.5 1-0.3 0.5-0.2 1 0.3 1 0.4 0 1.8 1.8 3.2 4 1.4 2.2 2.8 4 3.3 4 0.4 0 0.7 0.6 0.7 1.3 0 0.6 0.9 2.2 2 3.5 1.1 1.2 2 2.7 2 3.2 0 0.5 0.3 0.8 0.8 0.6 0.4-0.2 0.7 0.1 0.8 0.7 0 0.7 2 4.1 4.5 7.7 2.4 3.6 4.6 6.7 5 7 0.3 0.3 1.5 2.2 2.7 4.3 1.2 2 2.6 3.7 3.2 3.7 0.6 0 1 0.9 1 2 0 1.1 0.3 2 0.8 2 0.4 0 1.8 1.8 3.2 4 1.4 2.2 2.8 4 3.3 4 0.4 0 0.7 0.8 0.7 1.8 0.1 0.9 1 2.5 2 3.5 1.1 0.9 1.9 1.8 1.8 2-0.1 0.1 1.3 2.5 3.2 5.2 1.9 2.8 4.2 5.9 5.2 7 1 1.1 1.8 2.6 1.8 3.3 0 0.6 0.4 1.2 1 1.2 0.6 0 1 0.7 1 1.5 0 0.8 0.4 1.5 1 1.5 0.6 0 1 0.6 1 1.3 0 0.6 0.9 1.9 2 2.7 1.1 0.8 2 2.3 2 3.3 0 0.9 0.3 1.7 0.8 1.7 0.4 0 1.8 1.8 3.2 4 1.4 2.2 2.8 4 3.3 4 0.4 0 0.7 0.7 0.7 1.5 0 0.8 0.4 1.5 1 1.5 0.6 0 1 0.7 1 1.5 0 0.8 0.9 2.4 2 3.5 1.1 1.1 2 2.4 2 3 0 0.6 0.4 1 1 1 0.6 0 1 0.6 1 1.3-0.1 0.6 1.2 2.6 2.7 4.2 1.5 1.7 3.7 4.7 4.8 6.8 1.1 2.1 3 4.9 4.3 6.2 1.2 1.4 2 2.6 1.7 2.8-0.3 0.1 0.2 0.9 1 1.7 0.9 0.8 1.6 2.1 1.5 2.8 0 0.6 0.9 1.8 2 2.5 1.1 0.6 2 1.5 2 2 0 0.4 0.9 1.7 2 3 1.1 1.2 2 2.8 2 3.5 0 0.6 0.4 1.2 1 1.2 0.6 0 1 0.7 1 1.5 0 0.8 0.7 1.7 1.5 2 0.8 0.3 1.3 0.9 1 1.5-0.3 0.6-0.1 1 0.5 1 0.6 0 1.2 0.8 1.5 1.8 0.3 0.9 1.5 2.8 2.7 4.2 1.3 1.4 2.4 3.1 2.6 3.8 0.1 0.7 0.9 1.9 1.7 2.7 0.8 0.8 1.5 1.8 1.5 2.3 0 0.4 1.6 2.4 3.5 4.5 1.9 2 3.2 3.7 2.8 3.7-0.5 0 0.3 1.1 1.7 2.5 2 2 3.3 2.5 6.8 2.3 2.3-0.2 4.2-0.6 4.2-1 0-0.5 0.3-0.7 0.8-0.7 0.4 0.1 4.4 0.1 9 0 6.6-0.1 8.2-0.4 8.2-1.6 0-0.8-0.9-2.5-2-3.7-1.1-1.3-2.7-3.6-3.4-5.3-0.8-1.7-2.6-4.3-4-6-1.4-1.7-2.6-3.3-2.6-3.7 0-0.5-0.6-0.5-1.2 0q-1.3 0.7-0.5-0.5c0.4-0.8-0.3-2.3-1.8-3.8-1.4-1.4-2.5-3.1-2.5-3.7 0-0.7-0.9-2-2-2.8-1.1-0.8-2-1.9-2-2.5 0-0.6-1-2.2-2.3-3.7-1.2-1.4-3-3.6-3.9-4.7-1-1.2-1.8-2.5-1.8-3.1 0-0.6-0.9-1.6-2-2.2-1.1-0.7-2-1.7-2-2.3 0-0.6-0.8-1.9-1.7-3-1-1.1-2.5-3.2-3.3-4.7-0.8-1.5-1.8-2.5-2.2-2.3-0.5 0.3-0.8-0.2-0.8-1 0-0.8-0.3-1.5-0.7-1.5-0.5 0-1.5-1.2-2.3-2.7-0.8-1.6-2.3-3.5-3.2-4.3-0.9-0.8-1.7-2.3-1.8-3.2 0-1-0.6-1.9-1.2-1.9-0.7-0.1-1.6-0.1-2 0-0.5 0-0.6-0.2-0.3-0.6 0.2-0.5-0.8-2.6-2.3-4.8-1.4-2.2-3.2-4.7-3.9-5.5-0.6-0.8-3.5-4.4-6.3-8-2.8-3.6-5.7-7.3-6.5-8.2-0.8-1-1.5-2.1-1.5-2.5 0.1-0.5-1.7-2.8-4-5.3-2.2-2.5-4-4.8-4-5.2 0-0.5-0.7-1.6-1.5-2.5-0.7-1-4.1-5.2-7.5-9.3-3.4-4.1-7.2-8.7-8.6-10.2-1.3-1.6-2.4-3.1-2.4-3.5 0-0.5-1.8-2.8-4-5.3-2.3-2.5-4.1-4.7-4-5 0-0.3-1.2-1.8-2.6-3.5-1.4-1.6-4.3-5-6.3-7.5-2-2.5-3.9-4.7-4.2-5-0.3-0.3-1.1-1.5-1.8-2.7-0.6-1.3-1.5-2.1-2.1-1.8-0.6 0.3-1 0-1-0.5 0-0.5-1.5-3-3.2-5.5-1.8-2.4-3.7-4.1-4.3-3.7-0.6 0.4-0.7 0.2-0.2-0.5 0.4-0.8-0.4-2.5-2-4.3-1.6-1.7-4.2-4.8-5.8-7-1.6-2.1-3.8-3.9-4.7-4-1 0-2.1-0.4-2.4-1-0.4-0.5-1.8-1-3-1-1.3 0-2.4-0.4-2.4-1 0-0.5-0.9-1-2-1-1.1 0-2-0.4-2-1 0-0.5-0.9-1-2-1-1.1 0-2.2-0.4-2.5-1-0.3-0.5-1.2-1-2-1-0.8 0-1.5 0.5-1.5 1z"/>
      <path class="d" d="m388.8 223.4l-12.6 1.1 7.5 16c9.9 1.2 17.5 1.5 23.3 1.5 5.8 0 10.2-0.3 9.8-0.7-0.5-0.4-0.2-1.4 0.5-2.2 1-1.2 0.9-1.3-0.3-0.5-1.1 0.7-1.3 0.5-0.7-0.9 0.5-1.2-0.1-2.5-2-4.5-1.5-1.5-2.6-2.8-2.5-3 0.1-0.1-0.8-2-2.1-4.2-1.8-3.3-2.7-4-5.2-3.8-1.6 0-8.7 0.6-15.7 1.2zm-25.8 10c-4.1 3.8-11.8 10-17 13.9-5.2 3.9-9.6 7.4-9.8 7.9-0.1 0.4-0.7 0.8-1.2 0.8-0.6 0-4 1.9-7.8 4.2-3.7 2.3-6.9 4.5-7.2 4.8-0.3 0.3-6.8 4.3-14.5 9-7.7 4.6-18.1 10.3-23 12.5-5 2.3-12.6 5.4-17 6.9-4.4 1.5-11.4 3.5-15.5 4.6-4.1 1-12.2 2.7-18 3.7-8.3 1.4-16 1.8-37.5 1.8-17.5 0-30.2-0.5-36-1.3-5-0.8-13.1-2.3-18-3.3-5-1.1-12.8-3.2-17.5-4.6-4.7-1.5-15-6-23-9.9-8-3.9-20.1-10.4-27-14.4-6.9-4-16.6-10-21.5-13.3-5-3.3-12.6-8.7-17-12.1-4.4-3.5-8.8-6.6-9.8-6.9-1.2-0.5-2.3 0.1-3.7 2-1.1 1.6-1.6 3.2-1.2 3.7 0.4 0.5 0.2 0.6-0.3 0.3-0.6-0.3-1.6 0.4-2.3 1.6-0.8 1.2-1.2 3.3-1 4.7 0.2 1.4 0.7 2.5 1.3 2.4 0.5 0 1.8 1 2.7 2.3 1 1.3 2.2 2.1 2.8 1.8 0.5-0.3 0.9-0.1 0.7 0.3-0.1 0.5 1.3 2.1 3 3.5 1.8 1.5 3.7 2.7 4.3 2.7 0.5 0 1 0.4 1 1 0 0.6 2.4 2.7 5.2 4.7 2.9 2.1 5.6 3.6 6 3.5 0.5-0.1 0.8 0.2 0.8 0.8 0 0.6 4.6 4.1 10.2 7.8 5.7 3.8 14.3 9.1 19.3 11.9 4.9 2.9 9.7 5.3 10.5 5.5 0.8 0.2 1.7 0.6 2 1 0.3 0.3 4.7 2.5 9.7 4.7 5.1 2.3 10.1 4.2 11 4.4 1 0.1 2.5 0.7 3.3 1.2 0.8 0.4 6 2.1 11.5 3.7 5.5 1.5 15.4 3.8 22 5 10.5 1.9 15.5 2.2 39.5 2.2 23.6 0 29.6-0.3 42-2.3 8-1.2 19.2-3.3 25-4.7 5.8-1.3 15.4-4.1 21.5-6.1 6.1-2 16.2-5.8 22.5-8.5 6.3-2.7 14.9-6.8 19-9 4.1-2.3 10.9-6.1 15-8.6 4.1-2.5 11.3-7.3 16-10.6 4.7-3.3 14.3-10.7 21.3-16.5 7-5.9 12.7-10.8 12.7-11.1 0-0.3-1.7-4.1-3.8-8.4l-3.7-8z"/>
      <path class="e" d="m193.9 40.7c-4.6 4.8-7.7 8.1-6.9 7.5 0.8-0.7 1.9-0.9 2.4-0.4 0.5 0.4 0.6 0.2 0.3-0.3-0.4-0.6 0.6-2.2 2.1-3.8 1.5-1.5 3.1-2.4 3.5-2 0.5 0.5 0.7 0.1 0.5-0.7-0.1-0.8 0.3-1.4 0.9-1.3 0.7 0.2 1.2-0.3 1-1-0.1-0.6 0.5-1.1 1.3-0.9 0.8 0.2 1.2 0 0.8-0.5-0.4-0.4 0.3-1.5 1.5-2.5 1.2-0.9 1.9-1.9 1.6-2.1-0.3-0.3-4.4 3.3-9 8zm-53.9 64.8c-4.7 4.7-8.2 8.5-7.8 8.5 0.4 0 4.4-3.6 8.8-8 4.4-4.4 8-8.2 8-8.5 0-0.3-0.1-0.5-0.3-0.5-0.1 0-4.1 3.8-8.7 8.5zm243.9 113.6c0 0.5 3.6 0.6 7.8 0.3 4.3-0.4 8-0.9 8.3-1.1 0.3-0.2-3.3-0.3-7.9-0.2-4.6 0.1-8.3 0.6-8.2 1zm-47.5 25.7c0.3 0.4-0.6 1.4-2 2.2-1.3 0.8-2.4 1.8-2.4 2.3 0 0.4-0.9 0.7-2 0.7-1.1 0-1.9 0.3-1.8 0.8 0.2 0.4 0 0.7-0.4 0.7-0.4 0-1.4 1-2.3 2.3-0.8 1.2-2.2 2.2-3 2.2-0.8 0-2.9 1.4-4.5 3-1.6 1.6-3.7 3-4.5 3-0.8 0-1.5 0.5-1.5 1 0 0.6-0.9 1-2 1-1.1 0-1.9 0.6-1.8 1.3 0.2 0.6-0.5 1.1-1.5 1-0.9-0.2-1.5 0.2-1.2 0.7 0.3 0.6-0.1 1.1-0.8 1.1-0.6 0.1-1.5 0.1-2 0-0.4 0-0.7 0.4-0.7 0.9 0 0.6-0.7 1-1.5 1-0.8 0-1.3 0.3-1.1 0.8 0.3 0.4-0.9 1.3-2.5 2-1.6 0.6-2.9 1.7-2.9 2.2 0 0.6 3-0.9 6.8-3.2 3.7-2.4 12.1-8 18.7-12.6 6.6-4.5 13.8-9.8 16-11.7 3-2.6 3.6-3.4 2.1-3.5-1 0-1.5 0.3-1.2 0.8zm-283.4 3.7c0 0.3 2.1 1.8 4.7 3.5 2.7 1.6 5.1 3 5.5 3 0.5 0 0.1-0.7-0.7-1.5-0.8-0.8-1.8-1.5-2.3-1.5-0.4 0-1.6-0.8-2.7-1.7-1.2-1-2.6-1.9-3.3-2-0.7-0.2-1.2-0.1-1.2 0.2zm40.5 25.1c1.1 0.9 5.1 3.1 9 5.1 5.1 2.6 6.4 2.9 4.7 1.4-1.2-1.2-2.9-2.1-3.7-2.1-0.8 0-1.5-0.4-1.5-1 0-0.6-0.5-0.8-1-0.5-0.6 0.3-2.1-0.6-3.5-2-1.4-1.4-3.3-2.5-4.3-2.5-1.5 0.1-1.5 0.2 0.3 1.6zm178.5 11.4c0 0.6-0.9 1-2 1-1.1 0-2 0.4-2 1 0 0.6 1.8 0.4 4.5-0.5 2.5-0.8 4.5-1.7 4.5-2 0-0.3-1.1-0.5-2.5-0.5-1.4 0-2.5 0.4-2.5 1zm-144.5 5.1c2.7 1.1 5.3 1.6 5.7 1.2 0.4-0.4-0.5-0.9-2-1.1-1.5-0.1-2.8-0.7-3-1.2-0.1-0.6-1.4-1-3-0.9-2.2 0-1.9 0.3 2.3 2zm130 0c-4 1.5-4.3 1.7-1.5 1.3 1.9-0.4 5.1-1.3 7-2 2-0.7 2.6-1.2 1.5-1.2-1.1 0-4.3 0.9-7 1.9zm-12.5 2.9c-0.8 0.5-2.7 1-4.3 1-1.5 0-2.7 0.4-2.7 1 0 0.6 1.1 0.7 2.7 0.3 1.6-0.3 4.8-1.2 7.3-1.9 3.9-1.1 4.1-1.2 1.5-1.3-1.7 0-3.7 0.4-4.5 0.9zm-15.8 2.8c-2.8 0.1-5.2 0.7-5.2 1.2 0 0.6-3.3 1-8 1-4.7 0-8 0.4-8 1 0 0.6 1.5 1 3.2 0.9 1.8 0 5.8-0.5 8.8-1 3-0.5 7.5-1.1 10-1.5 2.5-0.3 4.7-0.8 5-1 0.3-0.2 0.3-0.5 0-0.6-0.3-0.2-2.9-0.2-5.8 0zm-64.2 2.5c0.3 0.2 3.3 0.7 6.7 1.1 4 0.4 6.3 0.2 6.3-0.4 0-0.6-2.9-1-6.8-1-3.7 0-6.5 0.1-6.2 0.3z"/>
      <path class="f" d="m378.9 251.3c-3 2.9-6.8 6.3-8.4 7.7-1.7 1.4-8.4 6.6-15 11.6-6.6 5-13.6 10.1-15.5 11.4-1.9 1.3-3.7 2.7-4 3-0.3 0.4-3.4 2.6-7 5-3.6 2.4-10.8 6.5-16 9.1-5.2 2.6-13.5 6.1-18.5 7.7-4.9 1.7-14.8 4.7-22 6.7-7.1 1.9-20.8 5.3-30.2 7.5-9.5 2.2-21.9 4.5-27.5 5.1-6.7 0.8-18.3 0.9-32.8 0.5-12.4-0.3-23.7-0.8-25.2-1.1-1.6-0.3-2.8-0.2-2.8 0.2 0 0.5 0.6 0.9 1.3 1 0.6 0 7.3 1.3 14.7 2.7 7.4 1.4 20.6 3.5 29.3 4.6 8.6 1.1 19.9 2 25 2 5 0 13.7-0.7 19.2-1.5 5.5-0.7 12.5-1.8 15.5-2.3 3-0.6 10.5-2.2 16.5-3.6 6.1-1.5 17.8-4.9 26-7.7 8.3-2.8 20.2-7.5 26.5-10.5 6.3-3 16-8 21.5-11.1 5.5-3.1 15.4-9.2 22-13.6 6.6-4.4 14.7-10 18-12.6 3.3-2.5 10.3-8.7 15.5-13.8 5.2-5 9.3-9.3 9-9.6-0.3-0.3-6.1-1-13-1.7-6.9-0.6-13.4-1.3-14.5-1.5-1.5-0.3-3.7 1.2-7.6 4.8z"/>
      <path class="b" d="m125 120.8l-6.5 6.7c10.5-10.1 13.5-13.1 13.5-13.2 0-0.2-0.1-0.3-0.3-0.3-0.1 0-3.2 3-6.7 6.8zm65.5 179.9c2.2 0.2 6 0.2 8.5 0 2.5-0.2 0.7-0.4-4-0.4-4.7 0-6.7 0.2-4.5 0.4z"/>
      <path class="a" d="m220.4 62.1c-3.8 8-3.9 8.2-1.9 9.6 1.3 0.9 3.2 1.2 5.5 0.9 1.9-0.3 3.8-1.2 4.3-1.9 0.4-0.6 1-2.1 1.3-3.2 0.3-1.1-0.1-4.6-1-7.8-1-3.4-2.2-5.7-3-5.7-0.7 0-3.1 3.7-5.2 8.1zm58 6.6c0.4 1.6 1.7 4.8 2.9 7.1 1.2 2.4 3.2 5.3 4.4 6.5 1.3 1.2 2.5 1.9 2.8 1.5 0.3-0.5-0.2-2.3-1.2-4-0.9-1.8-3.1-5.7-4.8-8.6-1.8-2.8-3.6-5.2-4-5.2-0.4 0-0.5 1.2-0.1 2.8zm-92.7 26.7c-2 4.1-3.7 8.2-3.7 9 0 0.8 0.7 1.7 1.5 2 0.8 0.3 3 0.2 4.7-0.1 1.8-0.4 3.9-1.2 4.6-1.8 0.7-0.6 1.3-2.9 1.2-5.1 0-2.2-0.6-5.7-1.3-7.8-0.6-2-1.7-3.7-2.3-3.7-0.6 0-2.7 3.4-4.7 7.5zm119.8-0.2c0.4 1.2 1.8 4.7 3.3 7.7 1.5 3 4 6.8 5.7 8.4 2.4 2.2 3.1 2.5 3.3 1.2 0.1-0.9-0.9-3.7-2.2-6.3-1.3-2.7-3.8-6.7-5.5-9.1-1.7-2.3-3.6-4.2-4.2-4.2-0.7 0-0.8 0.9-0.4 2.2zm-76 24.6c-2 4.2-3.4 8.3-3.1 8.9 0.4 0.8 2.5 1.3 5.1 1.3 3.6 0 4.8-0.5 6-2.3 0.8-1.2 1.5-3.1 1.5-4.2 0-1.1-0.7-4.1-1.5-6.8-0.8-2.6-2.1-4.7-2.9-4.7-0.8 0-3.1 3.5-5.1 7.7zm-92.3 8.3c-2.3 4.4-4.2 9.1-4.2 10.5 0 1.4 0.7 2.7 1.5 3 0.8 0.3 3.3 0.5 5.5 0.5 3 0 4.4-0.5 5.5-2.3 0.8-1.2 1.5-3.7 1.5-5.5 0-1.7-0.7-5.7-1.5-8.7-0.9-3.2-2.1-5.5-2.8-5.5-0.8 0-3.2 3.6-5.5 8zm189.8 6c0 0.3 1 3 2.2 6 1.3 3 3.4 7.4 4.8 9.7 1.4 2.4 3.5 4.7 4.7 5.3 1.7 0.7 2.3 0.7 2.3-0.3 0-0.6-1.1-3.5-2.4-6.2-1.2-2.8-4.4-7.3-6.9-10-2.5-2.8-4.6-4.8-4.7-4.5zm-144.2 4.7c-0.9 1-3.1 5-5.1 8.8-1.9 3.8-3.8 8.6-4.2 10.5-0.5 2.5-0.3 3.7 0.7 4.2 0.7 0.4 3.8 0.8 6.8 0.8 4.3 0.1 5.9-0.4 7.5-2.1 1.7-1.8 1.9-2.9 1.4-8.7-0.4-3.7-1.3-8.5-2-10.6-0.8-2.2-1.9-4.1-2.5-4.3-0.6-0.2-1.8 0.4-2.6 1.4zm77.6 20.5c-3.2 6.5-5.3 12-4.9 13 0.4 1.5 1.7 1.8 6.5 1.8 3.3 0 6.9-0.4 8-1 1.4-0.7 2.2-2.4 2.6-5.8 0.3-2.6 0.1-6.7-0.5-9.2-0.7-2.5-1.7-5.8-2.4-7.3-0.7-1.5-1.8-2.8-2.5-2.7-0.7 0-3.7 5.1-6.8 11.2zm-134.4 27.5c-1.7 2.7-4.3 7.6-5.8 11.1-2.1 4.9-2.5 6.7-1.6 8 0.8 1.2 2.8 1.8 6.5 2 4 0.3 6-0.1 7.8-1.5 2.1-1.6 2.3-2.6 2.2-8.3 0-3.6-0.6-8.1-1.2-10-0.6-1.9-1.7-4.1-2.3-4.8-0.6-0.7-1.4-1.3-1.9-1.2-0.4 0-2.1 2.1-3.7 4.7zm104.5 19c-3.1 6.5-5.4 12.4-5.1 13 0.4 0.9 2.8 1.2 7.8 1 6.7-0.2 7.3-0.4 8.8-2.9 1.3-2.4 1.3-3.7 0.2-10-0.7-4-1.8-8.4-2.5-9.7-0.7-1.4-1.7-2.6-2.4-2.8-0.6-0.3-3.6 4.7-6.8 11.4zm-55.2 7.5c-1 1.8-3.6 7-5.8 11.5-3.6 7.3-3.8 8.3-2.5 9.8 1.1 1.1 3.2 1.6 7.2 1.5 4.7 0 6.2-0.4 8-2.3 1.9-1.9 2.1-2.9 1.5-8.2-0.3-3.3-1.3-8.1-2.2-10.8-0.8-2.7-2.1-4.7-2.9-4.7-0.8 0-2.3 1.5-3.3 3.2z"/>
      <path class="g" d="m304 93.3c0 1.2 0.5 2.9 1 3.7 0.7 1.1 0.8 0.5 0.4-2l-0.7-3.5c5.7 5.4 7.3 6.5 7.3 6-0.1-0.5-1.5-2.2-3.3-3.7-1.8-1.5-3.5-2.8-4-2.8-0.4 0-0.7 1-0.7 2.3zm-122.9 10.2c-0.1 1.1 0.4 2.6 1.1 3.3 0.7 0.7 2.6 1.2 4.3 1.2 1.7 0 4.1-0.6 5.4-1.3 1.4-0.6 2.6-1.9 2.9-2.7 0.2-0.9-0.2-0.7-1.1 0.5-1.2 1.5-2.7 2-6.3 2-4.2 0-4.9-0.3-5.5-2.5-0.6-2-0.7-2.1-0.8-0.5zm57.5 17.5c0.4 2.9 0.2 5.4-0.6 7-1.2 2.3-1.2 2.4 0.4 1 1.1-1 1.7-2.9 1.6-5.5 0-2.2-0.5-4.7-1-5.5-0.7-1-0.8-0.1-0.4 3zm-13.9 6.3c-0.4 1-0.2 2.1 0.6 2.7 0.6 0.5 3 1.2 5.2 1.5l4 0.5c-7.6-1.8-8.6-2.5-8.8-4.2-0.2-2-0.3-2.1-1-0.5zm-34.5 25.7c0 4.7 0.1 5.1 0.9 2.8 0.5-1.7 0.5-3.9 0-5.5-0.8-2.4-0.9-2-0.9 2.7zm-2 9.1c-0.8 0.7-4.1 1-8.6 0.8-4.1-0.2-6.9-0.1-6.3 0.3 0.7 0.4 4.1 0.8 7.7 0.8 4.7 0.1 6.9-0.3 7.8-1.5 0.7-0.8 1.2-1.5 1-1.5-0.2 0-1 0.5-1.6 1.1zm81.6 11.5c-0.4 0.3-3.2 0.5-6.5 0.5-4 0-5.3 0.3-4.3 0.9 0.8 0.6 3.1 1 5 0.9 1.9 0 4.6-0.6 6-1.4 1.4-0.8 2-1.4 1.4-1.5-0.6 0-1.3 0.3-1.6 0.6zm-27.4 36c0.1 4.5 0.4 7.7 0.8 7 0.4-0.6 0.7-3.3 0.7-6.1 0-2.7-0.4-5.9-0.8-7-0.4-1.2-0.7 1.5-0.7 6.1zm-17.9 4.1c-0.5 0.3-0.8 1.8-0.7 3.2 0.1 1.7 1 3 2.7 3.9 1.4 0.6 4.2 1.2 6.3 1.2 2-0.1 5.1-0.8 6.7-1.6 1.7-0.8 2.1-1.1 1-0.8-1.1 0.3-3.8 0.8-6 1.1-2.2 0.3-5.2 0-6.7-0.6-2.4-0.9-2.7-1.6-2.4-4.1 0.2-1.7 0.3-3 0.2-3-0.2 0-0.6 0.3-1.1 0.7z"/>
    </svg>
  </g>
  <text x="135" y="78" class="z1">Z</text>
  <text x="185" y="78" class="a1">A</text>
  <text x="240" y="78" class="students">STUDENTS</text>
  <path id="underline" d="M290 90 600
    90" stroke="#2F2F2F" stroke-width="3" fill="none" stroke-linecap="round"/>
  <text x="410" y="135" class="tagline" text-anchor="middle">BEYOND BORDERS</text>
</svg>
